<svg xmlns:xlink="http://www.w3.org/1999/xlink" width="53" height="14" viewBox="0 0 53 8" fill="none" xmlns="http://www.w3.org/2000/svg" class="block lg:hidden"><title fill="none">Trustpilot</title><path d="M4.57617 0.46875V9H2.82422V0.46875H4.57617ZM7.20117 0.46875V1.8457H0.240234V0.46875H7.20117ZM9.375 4.04297V9H7.6875V2.66016H9.27539L9.375 4.04297ZM11.2852 2.61914L11.2559 4.18359C11.1738 4.17188 11.0742 4.16211 10.957 4.1543C10.8438 4.14258 10.7402 4.13672 10.6465 4.13672C10.4082 4.13672 10.2012 4.16797 10.0254 4.23047C9.85352 4.28906 9.70898 4.37695 9.5918 4.49414C9.47852 4.61133 9.39258 4.75391 9.33398 4.92188C9.2793 5.08984 9.24805 5.28125 9.24023 5.49609L8.90039 5.39062C8.90039 4.98047 8.94141 4.60352 9.02344 4.25977C9.10547 3.91211 9.22461 3.60938 9.38086 3.35156C9.54102 3.09375 9.73633 2.89453 9.9668 2.75391C10.1973 2.61328 10.4609 2.54297 10.7578 2.54297C10.8516 2.54297 10.9473 2.55078 11.0449 2.56641C11.1426 2.57812 11.2227 2.5957 11.2852 2.61914ZM15.832 7.48242V2.66016H17.5195V9H15.9316L15.832 7.48242ZM16.0195 6.18164L16.5176 6.16992C16.5176 6.5918 16.4688 6.98438 16.3711 7.34766C16.2734 7.70703 16.127 8.01953 15.9316 8.28516C15.7363 8.54688 15.4902 8.75195 15.1934 8.90039C14.8965 9.04492 14.5469 9.11719 14.1445 9.11719C13.8359 9.11719 13.5508 9.07422 13.2891 8.98828C13.0312 8.89844 12.8086 8.75977 12.6211 8.57227C12.4375 8.38086 12.293 8.13672 12.1875 7.83984C12.0859 7.53906 12.0352 7.17773 12.0352 6.75586V2.66016H13.7227V6.76758C13.7227 6.95508 13.7441 7.11328 13.7871 7.24219C13.834 7.37109 13.8984 7.47656 13.9805 7.55859C14.0625 7.64062 14.1582 7.69922 14.2676 7.73438C14.3809 7.76953 14.5059 7.78711 14.6426 7.78711C14.9902 7.78711 15.2637 7.7168 15.4629 7.57617C15.666 7.43555 15.8086 7.24414 15.8906 7.00195C15.9766 6.75586 16.0195 6.48242 16.0195 6.18164ZM22.2363 7.24805C22.2363 7.12695 22.2012 7.01758 22.1309 6.91992C22.0605 6.82227 21.9297 6.73242 21.7383 6.65039C21.5508 6.56445 21.2793 6.48633 20.9238 6.41602C20.6035 6.3457 20.3047 6.25781 20.0273 6.15234C19.7539 6.04297 19.5156 5.91211 19.3125 5.75977C19.1133 5.60742 18.957 5.42773 18.8438 5.2207C18.7305 5.00977 18.6738 4.76953 18.6738 4.5C18.6738 4.23438 18.7305 3.98438 18.8438 3.75C18.9609 3.51562 19.127 3.30859 19.3418 3.12891C19.5605 2.94531 19.8262 2.80273 20.1387 2.70117C20.4551 2.5957 20.8105 2.54297 21.2051 2.54297C21.7559 2.54297 22.2285 2.63086 22.623 2.80664C23.0215 2.98242 23.3262 3.22461 23.5371 3.5332C23.752 3.83789 23.8594 4.18555 23.8594 4.57617H22.1719C22.1719 4.41211 22.1367 4.26562 22.0664 4.13672C22 4.00391 21.8945 3.90039 21.75 3.82617C21.6094 3.74805 21.4258 3.70898 21.1992 3.70898C21.0117 3.70898 20.8496 3.74219 20.7129 3.80859C20.5762 3.87109 20.4707 3.95703 20.3965 4.06641C20.3262 4.17188 20.291 4.28906 20.291 4.41797C20.291 4.51562 20.3105 4.60352 20.3496 4.68164C20.3926 4.75586 20.4609 4.82422 20.5547 4.88672C20.6484 4.94922 20.7695 5.00781 20.918 5.0625C21.0703 5.11328 21.2578 5.16016 21.4805 5.20312C21.9375 5.29688 22.3457 5.41992 22.7051 5.57227C23.0645 5.7207 23.3496 5.92383 23.5605 6.18164C23.7715 6.43555 23.877 6.76953 23.877 7.18359C23.877 7.46484 23.8145 7.72266 23.6895 7.95703C23.5645 8.19141 23.3848 8.39648 23.1504 8.57227C22.916 8.74414 22.6348 8.87891 22.3066 8.97656C21.9824 9.07031 21.6172 9.11719 21.2109 9.11719C20.6211 9.11719 20.1211 9.01172 19.7109 8.80078C19.3047 8.58984 18.9961 8.32227 18.7852 7.99805C18.5781 7.66992 18.4746 7.33398 18.4746 6.99023H20.0742C20.082 7.2207 20.1406 7.40625 20.25 7.54688C20.3633 7.6875 20.5059 7.78906 20.6777 7.85156C20.8535 7.91406 21.043 7.94531 21.2461 7.94531C21.4648 7.94531 21.6465 7.91602 21.791 7.85742C21.9355 7.79492 22.0449 7.71289 22.1191 7.61133C22.1973 7.50586 22.2363 7.38477 22.2363 7.24805ZM28.0781 2.66016V3.85547H24.3867V2.66016H28.0781ZM25.3008 1.0957H26.9883V7.08984C26.9883 7.27344 27.0117 7.41406 27.0586 7.51172C27.1094 7.60938 27.1836 7.67773 27.2812 7.7168C27.3789 7.75195 27.502 7.76953 27.6504 7.76953C27.7559 7.76953 27.8496 7.76562 27.9316 7.75781C28.0176 7.74609 28.0898 7.73438 28.1484 7.72266L28.1543 8.96484C28.0098 9.01172 27.8535 9.04883 27.6855 9.07617C27.5176 9.10352 27.332 9.11719 27.1289 9.11719C26.7578 9.11719 26.4336 9.05664 26.1562 8.93555C25.8828 8.81055 25.6719 8.61133 25.5234 8.33789C25.375 8.06445 25.3008 7.70508 25.3008 7.25977V1.0957ZM30.7266 3.87891V11.4375H29.0391V2.66016H30.6035L30.7266 3.87891ZM34.7402 5.75977V5.88281C34.7402 6.34375 34.6855 6.77148 34.5762 7.16602C34.4707 7.56055 34.3145 7.9043 34.1074 8.19727C33.9004 8.48633 33.6426 8.71289 33.334 8.87695C33.0293 9.03711 32.6777 9.11719 32.2793 9.11719C31.8926 9.11719 31.5566 9.03906 31.2715 8.88281C30.9863 8.72656 30.7461 8.50781 30.5508 8.22656C30.3594 7.94141 30.2051 7.61133 30.0879 7.23633C29.9707 6.86133 29.8809 6.45898 29.8184 6.0293V5.70703C29.8809 5.24609 29.9707 4.82422 30.0879 4.44141C30.2051 4.05469 30.3594 3.7207 30.5508 3.43945C30.7461 3.1543 30.9844 2.93359 31.2656 2.77734C31.5508 2.62109 31.8848 2.54297 32.2676 2.54297C32.6699 2.54297 33.0234 2.61914 33.3281 2.77148C33.6367 2.92383 33.8945 3.14258 34.1016 3.42773C34.3125 3.71289 34.4707 4.05273 34.5762 4.44727C34.6855 4.8418 34.7402 5.2793 34.7402 5.75977ZM33.0469 5.88281V5.75977C33.0469 5.49023 33.0234 5.24219 32.9766 5.01562C32.9336 4.78516 32.8633 4.58398 32.7656 4.41211C32.6719 4.24023 32.5469 4.10742 32.3906 4.01367C32.2383 3.91602 32.0527 3.86719 31.834 3.86719C31.6035 3.86719 31.4062 3.9043 31.2422 3.97852C31.082 4.05273 30.9512 4.16016 30.8496 4.30078C30.748 4.44141 30.6719 4.60938 30.6211 4.80469C30.5703 5 30.5391 5.2207 30.5273 5.4668V6.28125C30.5469 6.57031 30.6016 6.83008 30.6914 7.06055C30.7812 7.28711 30.9199 7.4668 31.1074 7.59961C31.2949 7.73242 31.541 7.79883 31.8457 7.79883C32.0684 7.79883 32.2559 7.75 32.4082 7.65234C32.5605 7.55078 32.6836 7.41211 32.7773 7.23633C32.875 7.06055 32.9434 6.85742 32.9824 6.62695C33.0254 6.39648 33.0469 6.14844 33.0469 5.88281ZM37.5703 2.66016V9H35.877V2.66016H37.5703ZM35.7715 1.00781C35.7715 0.761719 35.8574 0.558594 36.0293 0.398438C36.2012 0.238281 36.4316 0.158203 36.7207 0.158203C37.0059 0.158203 37.2344 0.238281 37.4062 0.398438C37.582 0.558594 37.6699 0.761719 37.6699 1.00781C37.6699 1.25391 37.582 1.45703 37.4062 1.61719C37.2344 1.77734 37.0059 1.85742 36.7207 1.85742C36.4316 1.85742 36.2012 1.77734 36.0293 1.61719C35.8574 1.45703 35.7715 1.25391 35.7715 1.00781ZM40.7461 0V9H39.0527V0H40.7461ZM41.8711 5.89453V5.77148C41.8711 5.30664 41.9375 4.87891 42.0703 4.48828C42.2031 4.09375 42.3965 3.75195 42.6504 3.46289C42.9043 3.17383 43.2168 2.94922 43.5879 2.78906C43.959 2.625 44.3848 2.54297 44.8652 2.54297C45.3457 2.54297 45.7734 2.625 46.1484 2.78906C46.5234 2.94922 46.8379 3.17383 47.0918 3.46289C47.3496 3.75195 47.5449 4.09375 47.6777 4.48828C47.8105 4.87891 47.877 5.30664 47.877 5.77148V5.89453C47.877 6.35547 47.8105 6.7832 47.6777 7.17773C47.5449 7.56836 47.3496 7.91016 47.0918 8.20312C46.8379 8.49219 46.5254 8.7168 46.1543 8.87695C45.7832 9.03711 45.3574 9.11719 44.877 9.11719C44.3965 9.11719 43.9688 9.03711 43.5938 8.87695C43.2227 8.7168 42.9082 8.49219 42.6504 8.20312C42.3965 7.91016 42.2031 7.56836 42.0703 7.17773C41.9375 6.7832 41.8711 6.35547 41.8711 5.89453ZM43.5586 5.77148V5.89453C43.5586 6.16016 43.582 6.4082 43.6289 6.63867C43.6758 6.86914 43.75 7.07227 43.8516 7.24805C43.957 7.41992 44.0938 7.55469 44.2617 7.65234C44.4297 7.75 44.6348 7.79883 44.877 7.79883C45.1113 7.79883 45.3125 7.75 45.4805 7.65234C45.6484 7.55469 45.7832 7.41992 45.8848 7.24805C45.9863 7.07227 46.0605 6.86914 46.1074 6.63867C46.1582 6.4082 46.1836 6.16016 46.1836 5.89453V5.77148C46.1836 5.51367 46.1582 5.27148 46.1074 5.04492C46.0605 4.81445 45.9844 4.61133 45.8789 4.43555C45.7773 4.25586 45.6426 4.11523 45.4746 4.01367C45.3066 3.91211 45.1035 3.86133 44.8652 3.86133C44.627 3.86133 44.4238 3.91211 44.2559 4.01367C44.0918 4.11523 43.957 4.25586 43.8516 4.43555C43.75 4.61133 43.6758 4.81445 43.6289 5.04492C43.582 5.27148 43.5586 5.51367 43.5586 5.77148ZM52.0195 2.66016V3.85547H48.3281V2.66016H52.0195ZM49.2422 1.0957H50.9297V7.08984C50.9297 7.27344 50.9531 7.41406 51 7.51172C51.0508 7.60938 51.125 7.67773 51.2227 7.7168C51.3203 7.75195 51.4434 7.76953 51.5918 7.76953C51.6973 7.76953 51.791 7.76562 51.873 7.75781C51.959 7.74609 52.0312 7.73438 52.0898 7.72266L52.0957 8.96484C51.9512 9.01172 51.7949 9.04883 51.627 9.07617C51.459 9.10352 51.2734 9.11719 51.0703 9.11719C50.6992 9.11719 50.375 9.05664 50.0977 8.93555C49.8242 8.81055 49.6133 8.61133 49.4648 8.33789C49.3164 8.06445 49.2422 7.70508 49.2422 7.25977V1.0957Z" fill="black"></path></svg>