<svg width="100" height="20" viewBox="0 0 100 20" fill="none" xmlns="http://www.w3.org/2000/svg">
<g clip-path="url(#clip0_8216_7307)">
<path d="M0 0.625H18.75V19.375H0V0.625ZM20.3125 0.625H39.0625V19.375H20.3125V0.625ZM40.625 0.625H59.375V19.375H40.625V0.625ZM60.9375 0.625H79.6875V19.375H60.9375V0.625ZM81.25 0.625H100V19.375H81.25V0.625Z" fill="#00B67A"/>
<path d="M9.375 13.2617L12.2266 12.5391L13.418 16.2109L9.375 13.2617ZM15.9375 8.51562H10.918L9.375 3.78906L7.83203 8.51562H2.8125L6.875 11.4453L5.33203 16.1719L9.39453 13.2422L11.8945 11.4453L15.9375 8.51562ZM29.6875 13.2617L32.5391 12.5391L33.7305 16.2109L29.6875 13.2617ZM36.25 8.51562H31.2305L29.6875 3.78906L28.1445 8.51562H23.125L27.1875 11.4453L25.6445 16.1719L29.707 13.2422L32.207 11.4453L36.25 8.51562ZM50 13.2617L52.8516 12.5391L54.043 16.2109L50 13.2617ZM56.5625 8.51562H51.543L50 3.78906L48.457 8.51562H43.4375L47.5 11.4453L45.957 16.1719L50.0195 13.2422L52.5195 11.4453L56.5625 8.51562ZM70.3125 13.2617L73.1641 12.5391L74.3555 16.2109L70.3125 13.2617ZM76.875 8.51562H71.8555L70.3125 3.78906L68.7695 8.51562H63.75L67.8125 11.4453L66.2695 16.1719L70.332 13.2422L72.832 11.4453L76.875 8.51562ZM90.625 13.2617L93.4766 12.5391L94.668 16.2109L90.625 13.2617ZM97.1875 8.51562H92.168L90.625 3.78906L89.082 8.51562H84.0625L88.125 11.4453L86.582 16.1719L90.6445 13.2422L93.1445 11.4453L97.1875 8.51562Z" fill="white"/>
</g>
<defs>
<clipPath id="clip0_8216_7307">
<rect width="100" height="18.76" fill="white" transform="translate(0 0.620117)"/>
</clipPath>
</defs>
</svg>
