<svg xmlns:xlink="http://www.w3.org/1999/xlink" xmlns="http://www.w3.org/2000/svg" width="163" height="50" viewBox="0 0 163 50" fill="none">
  <g id="Logo">
    <g id="Group">
      <g id="Group_2">
        <g id="Group_3">
          <path id="Vector" d="M86.1601 32.9387C86.0554 33.3625 85.9258 33.9184 85.7688 34.6088C85.6142 35.2968 85.4622 36.0396 85.3151 36.8348C85.2478 37.2012 85.188 37.5601 85.1232 37.9215H84.7543C84.6845 37.5551 84.6197 37.1912 84.5474 36.8223C84.3928 36.0371 84.2408 35.3242 84.0937 34.6886C83.9467 34.053 83.822 33.5295 83.7173 33.1232L82.314 27.8188H74.8311V43.7269H79.091V34.726C79.091 33.6666 79.086 32.6471 79.0785 31.665H79.415C79.42 31.6874 79.425 31.7099 79.43 31.7323C79.6543 32.7668 79.9061 33.8436 80.1828 34.9653C80.4595 36.087 80.781 37.3108 81.1449 38.6369L82.314 42.9592H86.549L87.7704 38.769C88.1518 37.5152 88.4883 36.2889 88.7849 35.0974C89.079 33.9034 89.3432 32.7692 89.5775 31.6899C89.5775 31.68 89.58 31.6725 89.5825 31.665H89.8841C89.8418 32.6421 89.8044 33.6541 89.772 34.7135C89.7371 35.8103 89.7196 36.8721 89.7196 37.8966V43.7294H94.3958V27.8213H87.5111L86.1601 32.9387Z" fill="#0D2318"/>
          <path id="Vector_2" d="M105.999 31.4553C105.037 30.9244 103.891 30.6602 102.557 30.6602C101.223 30.6602 100.042 30.9244 99.0623 31.4553C98.0827 31.9838 97.3299 32.754 96.8014 33.761C96.273 34.768 96.0088 35.9795 96.0088 37.3928C96.0088 38.8061 96.273 39.9901 96.8014 40.9972C97.3299 42.0042 98.0827 42.7794 99.0623 43.3178C100.042 43.8562 101.206 44.1254 102.557 44.1254C104.566 44.1254 106.151 43.5297 107.31 42.3357C108.472 41.1417 109.053 39.4941 109.053 37.3903C109.053 35.977 108.784 34.7655 108.248 33.7585C107.712 32.7515 106.961 31.9813 105.999 31.4528V31.4553ZM104.167 39.5813C103.856 40.0849 103.31 40.3366 102.53 40.3366C102.011 40.3366 101.595 40.2269 101.283 40.0076C100.972 39.7857 100.747 39.4542 100.608 39.013C100.468 38.5718 100.401 38.0309 100.401 37.3953C100.401 36.4232 100.56 35.6853 100.882 35.1818C101.201 34.6783 101.752 34.4265 102.532 34.4265C103.053 34.4265 103.467 34.5412 103.781 34.7705C104.092 34.9999 104.314 35.3364 104.444 35.7776C104.574 36.2188 104.638 36.7572 104.638 37.3928C104.638 38.3475 104.481 39.0753 104.17 39.5813H104.167Z" fill="#0D2318"/>
          <path id="Vector_3" d="M120.927 31.1762C120.441 30.8322 119.846 30.6577 119.135 30.6577C118.425 30.6577 117.832 30.8422 117.251 31.2136C116.67 31.585 116.176 32.1508 115.77 32.9086C115.526 33.3672 115.321 33.8982 115.154 34.5014H114.873V31.054H110.585V43.7267H115.002V36.7821C115.002 36.3559 115.072 35.9895 115.212 35.6829C115.351 35.3713 115.541 35.1345 115.783 34.9675C116.024 34.798 116.319 34.7157 116.665 34.7157C116.959 34.7157 117.201 34.783 117.393 34.9152C117.582 35.0498 117.734 35.2292 117.847 35.4586C117.959 35.6904 118.016 35.972 118.016 36.3061V43.7292H122.433V35.0049C122.433 34.0851 122.303 33.3049 122.042 32.6593C121.782 32.0137 121.409 31.5177 120.925 31.1737L120.927 31.1762Z" fill="#0D2318"/>
          <path id="Vector_4" d="M136.908 31.3508V31.0566H131.893L129.482 35.6979H128.799V26.7344H124.382V43.7292H128.799V38.906H129.373L132.022 43.7292H137.037V43.4376L132.999 37.206L136.908 31.3508Z" fill="#0D2318"/>
          <path id="Vector_5" d="M146.405 31.3881C145.582 30.902 144.511 30.6577 143.197 30.6577C141.794 30.6577 140.607 30.9394 139.638 31.5052C138.668 32.0735 137.935 32.8787 137.441 33.9331C136.948 34.985 136.701 36.2612 136.701 37.7618C136.701 39.2623 136.978 40.404 137.531 41.3412C138.085 42.2784 138.847 42.9764 139.817 43.4375C140.787 43.8962 141.886 44.1255 143.117 44.1255C144.349 44.1255 145.361 43.9485 146.106 43.597C146.851 43.2431 147.427 42.7695 147.833 42.1762C148.24 41.5855 148.531 40.9449 148.706 40.2544L145.042 39.2474C144.972 39.4792 144.867 39.6886 144.73 39.883C144.59 40.0774 144.401 40.237 144.159 40.3591C143.915 40.4837 143.578 40.5436 143.145 40.5436C142.382 40.5436 141.836 40.3068 141.507 39.8282C141.265 39.4767 141.116 38.9383 141.051 38.2104H148.783C148.835 37.8764 148.865 37.5748 148.873 37.3081C148.88 37.0439 148.888 36.7597 148.888 36.4606C148.888 35.294 148.678 34.277 148.265 33.4121C147.848 32.5471 147.23 31.8691 146.408 31.3831L146.405 31.3881ZM141.043 36.4656C141.103 35.6729 141.253 35.0921 141.495 34.7282C141.816 34.2421 142.34 33.9979 143.067 33.9979C143.725 33.9979 144.207 34.2322 144.511 34.7008C144.76 35.0872 144.875 35.6754 144.86 36.4631H141.046L141.043 36.4656Z" fill="#0D2318"/>
          <path id="Vector_6" d="M157.512 31.0566L156.63 35.8824C156.49 36.5878 156.358 37.3032 156.226 38.0286C156.151 38.4448 156.072 38.8711 155.992 39.3023H155.69C155.588 38.7165 155.476 38.1258 155.354 37.54C155.234 36.9468 155.112 36.3685 154.99 35.8026L153.978 31.0566H149.169L153.409 43.5398C153.399 43.5598 153.389 43.5822 153.38 43.5996C153.205 43.8988 152.976 44.0982 152.689 44.1954C152.402 44.2926 152.001 44.3424 151.483 44.3424C151.223 44.3424 150.954 44.3225 150.677 44.2876C150.398 44.2527 150.132 44.2078 149.872 44.1555L149.274 47.7873C149.621 47.8421 149.952 47.8845 150.274 47.9219C150.595 47.9568 150.972 47.9742 151.403 47.9742C152.547 47.9742 153.512 47.8197 154.299 47.5106C155.087 47.2015 155.743 46.7304 156.261 46.0923C156.779 45.4567 157.223 44.6416 157.585 43.652L162.261 31.0591H157.505L157.512 31.0566Z" fill="#0D2318"/>
        </g>
        <g id="Group_4">
          <path id="Vector_7" d="M84.8056 18.7978C84.5987 19.244 84.3121 19.578 83.9431 19.8023C83.5742 20.0242 83.0832 20.1338 82.465 20.1338C81.7297 20.1338 81.1364 19.9618 80.6902 19.6204C80.2441 19.2789 79.9225 18.7978 79.7281 18.1821C79.5312 17.5639 79.4315 16.8111 79.4315 15.9213C79.4315 15.1859 79.5287 14.5154 79.7281 13.9172C79.925 13.3164 80.2465 12.8279 80.6902 12.4515C81.1364 12.0751 81.7272 11.8857 82.465 11.8857C83.3549 11.8857 84.008 12.1349 84.4192 12.631C84.8305 13.1295 85.1122 13.8574 85.2667 14.817L89.6887 13.992C89.5516 12.6559 89.1927 11.5342 88.6094 10.6269C88.0261 9.71956 87.2309 9.03408 86.2189 8.57045C85.2069 8.10682 84.008 7.875 82.622 7.875C81.0616 7.875 79.6957 8.18658 78.5216 8.81223C77.3476 9.44038 76.4403 10.3527 75.7972 11.5517C75.1541 12.7531 74.8325 14.2088 74.8325 15.9213C74.8325 17.205 75.0095 18.3541 75.3585 19.3661C75.7099 20.3756 76.211 21.2281 76.8615 21.9236C77.5121 22.619 78.3172 23.1499 79.2769 23.5164C80.2366 23.8853 81.3159 24.0697 82.5149 24.0697C83.8858 24.0697 85.0848 23.8304 86.1142 23.3494C87.1412 22.8708 87.9613 22.1678 88.5695 21.2431C89.1777 20.3158 89.5591 19.1941 89.7136 17.8755L85.3166 17.1551C85.1795 17.8057 85.0075 18.3541 84.8031 18.8003L84.8056 18.7978Z" fill="#0D2318"/>
          <path id="Vector_8" d="M100.676 11.7835C99.7266 11.27 98.5899 11.0107 97.2713 11.0107C95.9527 11.0107 94.7811 11.2675 93.814 11.7835C92.8444 12.2969 92.1016 13.0423 91.5781 14.0194C91.0546 14.9965 90.7954 16.1705 90.7954 17.539C90.7954 18.9074 91.0546 20.0566 91.5781 21.0337C92.1016 22.0108 92.8469 22.7611 93.814 23.2845C94.7836 23.8055 95.9352 24.0672 97.2713 24.0672C99.2579 24.0672 100.826 23.4889 101.975 22.3323C103.124 21.1758 103.697 19.578 103.697 17.539C103.697 16.168 103.431 14.9965 102.9 14.0194C102.369 13.0423 101.626 12.2969 100.676 11.7835ZM98.8641 19.6602C98.555 20.1488 98.0166 20.3931 97.2439 20.3931C96.7304 20.3931 96.3191 20.2859 96.01 20.074C95.7034 19.8596 95.4791 19.5381 95.342 19.1094C95.2049 18.6806 95.1376 18.1572 95.1376 17.5415C95.1376 16.5993 95.2946 15.8839 95.6137 15.3953C95.9303 14.9067 96.4737 14.6625 97.2464 14.6625C97.7599 14.6625 98.1711 14.7721 98.4802 14.9965C98.7893 15.2183 99.0062 15.5449 99.1358 15.9736C99.2654 16.3998 99.3302 16.9233 99.3302 17.5415C99.3302 18.4687 99.1757 19.1742 98.8666 19.6627L98.8641 19.6602Z" fill="#0D2318"/>
          <path id="Vector_9" d="M115.445 11.5118C114.964 11.1778 114.373 11.0107 113.67 11.0107C112.968 11.0107 112.382 11.1902 111.806 11.5516C111.233 11.9106 110.744 12.459 110.34 13.1968C110.098 13.6405 109.897 14.1565 109.732 14.7397H109.455V11.3971H105.213V23.6858H109.583V16.9532C109.583 16.5419 109.652 16.1855 109.789 15.8864C109.926 15.5847 110.113 15.3554 110.355 15.1909C110.595 15.0289 110.886 14.9466 111.228 14.9466C111.519 14.9466 111.759 15.0114 111.948 15.1386C112.137 15.2682 112.287 15.4452 112.397 15.6645C112.509 15.8889 112.564 16.163 112.564 16.4871V23.6858H116.933V15.2283C116.933 14.3384 116.804 13.5807 116.547 12.955C116.29 12.3294 115.921 11.8483 115.443 11.5168L115.445 11.5118Z" fill="#0D2318"/>
          <path id="Vector_10" d="M125.598 19.8524C125.324 19.9221 125.067 19.9546 124.828 19.9546C124.399 19.9546 124.108 19.8648 123.953 19.6853C123.798 19.5059 123.721 19.2441 123.721 18.9002V14.7873H126.523V11.3948H123.721V8.38867H119.352V11.3948H118.093V14.7873H119.352V19.6978C119.352 20.4855 119.496 21.2108 119.788 21.8714C120.079 22.5295 120.543 23.0604 121.176 23.4642C121.809 23.8655 122.632 24.0674 123.644 24.0674C124.14 24.0674 124.556 24.0475 124.89 24.0051C125.224 23.9602 125.533 23.9054 125.815 23.8381C126.097 23.7683 126.401 23.6836 126.727 23.5814L126.266 19.6729C126.094 19.7252 125.872 19.7826 125.598 19.8524Z" fill="#0D2318"/>
          <path id="Vector_11" d="M136.984 11.6388C136.179 11.255 135.107 11.0605 133.771 11.0605C132.555 11.0605 131.543 11.2325 130.737 11.574C129.932 11.918 129.314 12.3742 128.885 12.95C128.457 13.5233 128.175 14.1689 128.038 14.8917L132.126 15.7642C132.228 15.303 132.4 14.9715 132.639 14.7746C132.879 14.5777 133.195 14.4805 133.589 14.4805C134.068 14.4805 134.419 14.6051 134.643 14.8519C134.865 15.1011 134.977 15.4576 134.977 15.9187V16.7413H132.253C130.538 16.7413 129.332 17.0753 128.629 17.7433C127.926 18.4139 127.574 19.2963 127.574 20.3905C127.574 21.2131 127.731 21.8811 128.05 22.3971C128.367 22.9106 128.786 23.297 129.309 23.5537C129.833 23.8079 130.408 23.9376 131.044 23.9376C131.901 23.9376 132.604 23.7332 133.153 23.3194C133.701 22.9081 134.137 22.3497 134.464 21.6468C134.596 21.3627 134.706 21.061 134.808 20.747H135.184V23.6783H139.322V15.9162C139.322 14.8693 139.133 13.9944 138.756 13.2815C138.38 12.5711 137.787 12.0202 136.981 11.6363L136.984 11.6388ZM134.98 18.8501C134.98 19.1941 134.903 19.5056 134.748 19.7873C134.594 20.0715 134.379 20.2883 134.105 20.4454C133.831 20.5974 133.497 20.6747 133.103 20.6747C132.759 20.6747 132.482 20.6248 132.268 20.5226C132.054 20.4179 131.904 20.2858 131.819 20.1238C131.734 19.9618 131.69 19.7674 131.69 19.5455C131.69 19.2015 131.827 18.9273 132.101 18.7205C132.375 18.5161 132.734 18.4139 133.18 18.4139H134.98V18.8501Z" fill="#0D2318"/>
          <path id="Vector_12" d="M147.139 14.8394C147.551 14.8394 147.872 14.9167 148.104 15.0713C148.336 15.2233 148.51 15.4402 148.63 15.7144C148.75 15.9886 148.852 16.2877 148.939 16.6142L152.975 15.8938C152.82 14.8818 152.541 14.0144 152.14 13.2865C151.736 12.5562 151.142 11.9953 150.352 11.6015C149.565 11.2052 148.518 11.0107 147.217 11.0107C145.915 11.0107 144.706 11.2775 143.747 11.8084C142.787 12.3393 142.059 13.1046 141.561 14.1091C141.065 15.1111 140.815 16.3325 140.815 17.7708C140.815 19.2091 141.075 20.3706 141.598 21.3029C142.122 22.2376 142.862 22.9331 143.822 23.3867C144.781 23.8404 145.913 24.0672 147.214 24.0672C149.049 24.0672 150.422 23.641 151.339 22.7835C152.257 21.926 152.8 20.7695 152.972 19.3138L148.989 18.389C148.919 18.713 148.817 19.0221 148.68 19.3138C148.543 19.6054 148.353 19.8397 148.114 20.0217C147.872 20.2011 147.566 20.2909 147.189 20.2909C146.743 20.2909 146.384 20.1812 146.11 19.9569C145.836 19.735 145.629 19.4159 145.492 19.0072C145.355 18.5959 145.287 18.0899 145.287 17.4916C145.287 16.532 145.457 15.849 145.801 15.4477C146.145 15.0438 146.588 14.8419 147.137 14.8419L147.139 14.8394Z" fill="#0D2318"/>
          <path id="Vector_13" d="M161.277 19.8524C161.003 19.9221 160.746 19.9546 160.507 19.9546C160.078 19.9546 159.787 19.8648 159.632 19.6853C159.478 19.5059 159.4 19.2441 159.4 18.9002V14.7873H162.202V11.3948H159.4V8.38867H155.031V11.3948H153.772V14.7873H155.031V19.6978C155.031 20.4855 155.175 21.2108 155.467 21.8714C155.759 22.5295 156.222 23.0604 156.855 23.4642C157.489 23.8655 158.311 24.0674 159.323 24.0674C159.819 24.0674 160.235 24.0475 160.569 24.0051C160.903 23.9602 161.213 23.9054 161.494 23.8381C161.776 23.7683 162.08 23.6836 162.406 23.5814L161.945 19.6729C161.773 19.7252 161.552 19.7826 161.277 19.8524Z" fill="#0D2318"/>
        </g>
      </g>
      <g id="Group_5">
        <path id="Vector_14" d="M47.2262 45.3497C50.9003 42.3635 52.4433 37.9864 54.5197 33.891C54.9459 33.4074 55.5541 33.1183 56.1573 32.9014C59.8514 31.7548 62.5435 28.1928 62.5011 24.2993V24.1846C62.4787 20.4431 59.9237 17.0158 56.4141 15.8218C55.8358 15.5925 55.1702 15.3257 54.7465 14.887C51.0549 8.46099 47.3408 1.77571 38.816 0.277634C36.3931 -0.0813076 33.8357 0.000949744 31.3181 0.0333542H31.181C28.6659 -0.0015429 26.1085 -0.0838003 23.6831 0.277634C15.1608 1.77571 11.4467 8.46349 7.75512 14.887C7.33137 15.3257 6.66583 15.5925 6.08754 15.8218C2.58038 17.0158 0.0229271 20.4456 0.000493317 24.1871V24.3018C-0.0418817 28.1953 2.65018 31.7548 6.34428 32.9039C6.9475 33.1208 7.55571 33.4074 7.98195 33.8935C10.0583 37.9889 11.6013 42.3685 15.2754 45.3522C18.456 48.4406 23.035 50.1904 26.5472 49.986C27.8159 49.986 29.486 49.986 31.181 49.9885H31.3156C33.0131 49.9885 34.6832 49.9885 35.9494 49.986C39.4616 50.1879 44.0431 48.4406 47.2212 45.3522L47.2262 45.3497ZM19.488 31.9467C19.488 31.9218 19.4905 31.8969 19.4905 31.8719C15.0187 30.1894 11.8306 25.8946 11.8306 20.8445C11.8306 14.3312 17.1275 9.04926 23.6607 9.04926C26.5821 9.04926 29.2517 10.1111 31.3156 11.861C33.3795 10.1111 36.0492 9.04926 38.9705 9.04926C45.5038 9.04926 50.8006 14.3312 50.8006 20.8445C50.8006 25.8921 47.615 30.1869 43.1407 31.8719C43.1407 31.8969 43.1457 31.9218 43.1457 31.9467C43.1457 38.46 37.8488 43.7419 31.3156 43.7419C24.7824 43.7419 19.4855 38.46 19.4855 31.9467H19.488Z" fill="#0D2318"/>
        <path id="Vector_15" d="M45.3889 26.1366C46.4532 25.1918 46.361 23.2451 46.209 21.9464L46.184 21.8243C44.4616 15.1564 36.3505 14.977 30.6947 14.957C25.2408 14.982 17.4837 15.6824 16.2523 22.1583C16.1526 23.5841 16.028 25.6679 17.541 26.4058C19.7695 26.9516 23.1246 26.9841 24.6376 24.9675C25.5599 23.9231 24.8968 22.0112 25.8042 21.0715C26.1631 20.72 26.7464 20.6727 27.2449 20.6477C28.8402 20.568 30.5103 20.5804 32.0582 20.5804C33.5214 20.6826 35.1391 20.3785 36.5026 20.9244C37.0659 21.2485 37.218 22.0835 37.2305 22.7416C37.2379 24.6833 38.2599 25.9072 40.0496 26.4157C41.7696 26.6949 43.8509 27.0588 45.3889 26.1316V26.1366Z" fill="#0D2318"/>
      </g>
    </g>
  </g>
</svg>