<svg xmlns:xlink="http://www.w3.org/1999/xlink" xmlns="http://www.w3.org/2000/svg" width="133" height="40" viewBox="0 0 133 40" fill="none">
<path d="M3.4043 12.554C3.4043 10.0864 5.40124 8.08594 7.86889 8.08594C13.2961 8.08594 22.1723 8.08594 25.7473 8.08594C26.5698 8.08594 27.0879 8.75165 26.5715 9.39188C25.3274 10.9342 22.766 12.9157 22.766 14.0434C22.766 15.5327 27.2341 18.5115 27.2341 20.0008C27.2341 21.4902 22.766 24.4689 22.766 25.9583C22.766 27.0859 25.3274 29.0674 26.5715 30.6098C27.0879 31.25 26.5698 31.9157 25.7473 31.9157C22.1723 31.9157 13.2961 31.9157 7.86889 31.9157C5.40124 31.9157 3.4043 29.9153 3.4043 27.4476V12.554Z" fill="white"/>
<path fill-rule="evenodd" clip-rule="evenodd" d="M19.0481 8.08595C19.8707 8.08595 20.3854 8.75167 19.869 9.3919C19.4465 9.91573 18.872 10.4902 18.2975 11.0647C17.1805 12.1817 16.0635 13.2987 16.0635 14.0434C16.0635 14.7881 17.1805 15.9051 18.2975 17.0221C19.4145 18.1391 20.5316 19.2562 20.5316 20.0008C20.5316 20.7455 19.4145 21.8626 18.2975 22.9796C17.1805 24.0966 16.0635 25.2136 16.0635 25.9583C16.0635 26.703 17.1805 27.82 18.2975 28.937C18.872 29.5115 19.4465 30.086 19.869 30.6098C20.384 31.2483 19.8735 31.9121 19.0549 31.9157L25.7469 31.9157C26.5694 31.9157 27.0876 31.25 26.5711 30.6098C26.1486 30.0859 25.5741 29.5115 24.9997 28.937C23.8826 27.82 22.7656 26.7029 22.7656 25.9583C22.7656 25.2136 23.8826 24.0966 24.9997 22.9796C26.1167 21.8625 27.2337 20.7455 27.2337 20.0008C27.2337 19.2562 26.1167 18.1391 24.9997 17.0221C23.8826 15.9051 22.7656 14.7881 22.7656 14.0434C22.7656 13.2987 23.8826 12.1817 24.9997 11.0647C25.5741 10.4902 26.1486 9.91571 26.5711 9.39188C27.0876 8.75165 26.5694 8.08594 25.7469 8.08594L19.0481 8.08595Z" fill="url(#paint0_linear_247_48861)"/>
<path opacity="0.5" fill-rule="evenodd" clip-rule="evenodd" d="M11.9698 8.08594C12.7914 8.08675 13.3109 8.75204 12.7948 9.39188C12.3723 9.91571 11.7978 10.4902 11.2233 11.0647C10.1063 12.1817 8.98926 13.2987 8.98926 14.0434C8.98926 14.7881 10.1063 15.9051 11.2233 17.0221C12.3403 18.1391 13.4573 19.2562 13.4573 20.0008C13.4573 20.7455 12.3403 21.8625 11.2233 22.9796C10.1063 24.0966 8.98926 25.2136 8.98926 25.9583C8.98926 26.7029 10.1063 27.82 11.2233 28.937C11.7978 29.5115 12.3723 30.0859 12.7948 30.6098C13.3112 31.25 12.7908 31.9157 11.9683 31.9157L19.0484 31.9157C19.8709 31.9157 20.3857 31.25 19.8692 30.6098C19.4467 30.086 18.8722 29.5115 18.2978 28.937C17.1807 27.82 16.0637 26.703 16.0637 25.9583C16.0637 25.2136 17.1807 24.0966 18.2978 22.9796C19.4148 21.8625 20.5318 20.7455 20.5318 20.0008C20.5318 19.2562 19.4148 18.1391 18.2978 17.0221C17.1807 15.9051 16.0637 14.7881 16.0637 14.0434C16.0637 13.2987 17.1807 12.1817 18.2978 11.0647C18.8722 10.4902 19.4467 9.91572 19.8692 9.39189C20.3857 8.75166 19.8709 8.08595 19.0484 8.08594L11.9698 8.08594Z" fill="url(#paint1_linear_247_48861)"/>
<path opacity="0.2" d="M3.4043 12.554C3.4043 10.0864 5.40473 8.08594 7.87238 8.08594C9.32327 8.08594 10.8465 8.08594 11.9684 8.08594C12.791 8.08594 13.3113 8.75165 12.7949 9.39188C11.5508 10.9342 8.9894 12.9157 8.9894 14.0434C8.9894 15.5327 13.4575 18.5115 13.4575 20.0008C13.4575 21.4902 8.9894 24.4689 8.9894 25.9583C8.9894 27.0859 11.5508 29.0674 12.7949 30.6098C13.3113 31.25 12.791 31.9157 11.9684 31.9157C10.8465 31.9157 9.32327 31.9157 7.87239 31.9157C5.40473 31.9157 3.4043 29.9153 3.4043 27.4476V12.554Z" fill="url(#paint2_linear_247_48861)"/>
<path fill-rule="evenodd" clip-rule="evenodd" d="M98.5871 13.7794C99.4296 13.7794 100.017 13.1411 100.017 12.3496C100.017 11.5581 99.4296 10.9453 98.5871 10.9453C97.77 10.9453 97.1828 11.5581 97.1828 12.3496C97.1828 13.1411 97.77 13.7794 98.5871 13.7794ZM48.0301 12.5538V15.0304H41.1365V18.8092H47.1875V21.2602H41.1365V25.3964H48.2854V27.873H38.5322V12.5538H48.0301ZM56.7275 15.9751H59.4339L56.1658 21.7198L59.7147 27.873H56.9573L54.8126 24.1198L52.6679 27.873H49.9105L53.4339 21.7198L50.1658 15.9751H52.8722L54.8126 19.3453L56.7275 15.9751ZM73.1818 21.9241C73.1818 18.2985 70.5265 15.6687 66.8754 15.6687C63.2244 15.6687 60.5435 18.273 60.5435 21.9241C60.5435 25.5751 63.2244 28.1794 66.8499 28.1794C68.9691 28.1794 71.1393 27.1836 72.2882 25.5751L70.2457 24.1453C69.5818 25.09 68.2031 25.7794 66.8499 25.7794C65.0627 25.7794 63.7095 24.656 63.352 22.9198H73.1308C73.1563 22.7411 73.1818 22.2304 73.1818 21.9241ZM63.4031 20.6219C63.8116 19.1411 65.1137 18.0177 66.8499 18.0177C68.535 18.0177 69.9393 19.0645 70.2967 20.6219H63.4031ZM78.2457 17.4049C78.5776 16.7666 79.4202 15.9751 81.0798 15.9751H82.2032V18.6304H80.4159C79.0117 18.6304 78.2713 19.5496 78.2713 20.9794V27.873H75.7181V15.9751H78.2457V17.4049ZM89.9206 28.1794C91.81 28.1794 93.5972 27.4134 94.7717 26.2645L93.061 24.4262C92.3717 25.1666 91.1717 25.6517 89.9206 25.6517C87.7248 25.6517 86.0908 24.0687 86.0908 21.9241C86.0908 19.8304 87.6993 18.1964 89.9206 18.1964C91.1461 18.1964 92.3461 18.7581 93.01 19.4219L94.6951 17.456C93.5461 16.4092 91.7844 15.6687 89.9461 15.6687C86.0908 15.6687 83.3078 18.4006 83.3078 21.9241C83.3078 25.4219 86.0908 28.1794 89.9206 28.1794ZM97.2844 15.9751H99.8376V27.873H97.2844V15.9751ZM106.487 27.873C109.04 27.873 110.751 26.3411 110.751 24.1453C110.751 22.1283 109.372 21.1581 107.713 20.7496L106.385 20.4177C105.721 20.2389 105.313 19.856 105.313 19.2687C105.313 18.707 105.798 18.2475 106.436 18.2475H109.832V15.9751H106.436C104.24 15.9751 102.862 17.4049 102.862 19.2687C102.862 21.3113 104.343 22.2304 105.67 22.5624L106.87 22.8687C107.84 23.1241 108.147 23.6092 108.147 24.2219C108.147 25.0389 107.406 25.5751 106.487 25.5751H103.449V27.873H106.487ZM118.986 15.6687C122.638 15.6687 125.293 18.2985 125.293 21.9241C125.293 22.2304 125.267 22.7411 125.242 22.9198H115.463C115.821 24.656 117.174 25.7794 118.961 25.7794C120.314 25.7794 121.693 25.09 122.357 24.1453L124.399 25.5751C123.25 27.1836 121.08 28.1794 118.961 28.1794C115.335 28.1794 112.655 25.5751 112.655 21.9241C112.655 18.273 115.335 15.6687 118.986 15.6687ZM118.961 18.0177C117.225 18.0177 115.923 19.1411 115.514 20.6219H122.408C122.05 19.0645 120.646 18.0177 118.961 18.0177Z" fill="black"/>
<defs>
<linearGradient id="paint0_linear_247_48861" x1="27.2337" y1="8.08594" x2="27.2336" y2="31.9157" gradientUnits="userSpaceOnUse">
<stop stop-color="#F99F73"/>
<stop offset="0.151042" stop-color="#ED0000"/>
<stop offset="0.33762" stop-color="#5218F4"/>
<stop offset="0.661476" stop-color="#1C7AF5"/>
<stop offset="0.812458" stop-color="#00AEB5"/>
<stop offset="1" stop-color="#00C54F"/>
</linearGradient>
<linearGradient id="paint1_linear_247_48861" x1="20.5318" y1="8.08594" x2="20.5317" y2="31.9157" gradientUnits="userSpaceOnUse">
<stop stop-color="#F99F73"/>
<stop offset="0.151042" stop-color="#ED0000"/>
<stop offset="0.33762" stop-color="#5218F4"/>
<stop offset="0.661476" stop-color="#1C7AF5"/>
<stop offset="0.812458" stop-color="#00AEB5"/>
<stop offset="1" stop-color="#00C54F"/>
</linearGradient>
<linearGradient id="paint2_linear_247_48861" x1="13.4575" y1="8.08594" x2="13.4574" y2="31.9157" gradientUnits="userSpaceOnUse">
<stop stop-color="#F99F73"/>
<stop offset="0.151042" stop-color="#ED0000"/>
<stop offset="0.33762" stop-color="#5218F4"/>
<stop offset="0.661476" stop-color="#1C7AF5"/>
<stop offset="0.812458" stop-color="#00AEB5"/>
<stop offset="1" stop-color="#00C54F"/>
</linearGradient>
</defs>
</svg>