<svg xmlns:xlink="http://www.w3.org/1999/xlink" xmlns="http://www.w3.org/2000/svg" width="170" height="28" viewBox="0 0 170 28" fill="none">
<g clip-path="url(#clip0_6670_1487)">
<path d="M28.2548 11.2914C31.4674 8.09956 32.5256 3.95577 30.6183 2.03599C28.711 0.116218 24.5604 1.14744 21.3477 4.33929C18.135 7.53115 17.0768 11.6749 18.9842 13.5947C20.8915 15.5145 25.0421 14.4833 28.2548 11.2914Z" fill="#1F80FF"/>
<path d="M27.1935 25.8264C28.6331 24.3761 27.9255 21.3395 25.6129 19.0439C23.3004 16.7483 20.2587 16.063 18.8191 17.5133C17.3794 18.9635 18.0871 22.0001 20.3996 24.2957C22.7122 26.5913 25.7539 27.2766 27.1935 25.8264Z" fill="#4AA147"/>
<path d="M14.7227 13.5866C16.63 11.6668 15.5718 7.523 12.3591 4.33115C9.14645 1.13929 4.99586 0.108072 3.08853 2.02785C1.1812 3.94762 2.2394 8.09141 5.45209 11.2833C8.66477 14.4751 12.8154 15.5063 14.7227 13.5866Z" fill="#CF2C91"/>
<path d="M13.4129 24.3003C15.7254 22.0047 16.4331 18.9681 14.9934 17.5179C13.5538 16.0676 10.5121 16.7529 8.19956 19.0485C5.88702 21.3441 5.17937 24.3807 6.61898 25.831C8.05859 27.2812 11.1003 26.5959 13.4129 24.3003Z" fill="#F58220"/>
<path d="M56.2 25.3002C56.2 26.2002 55.5 26.9002 54.5 26.9002C54 26.9002 53.5999 26.7002 53.2999 26.4002L46.4 18.9002L44 21.2002V25.0002C44 26.0002 43.1999 26.9002 42.0999 26.9002C41.0999 26.9002 40.2 26.1002 40.2 25.0002V3.6002C40.2 2.6002 40.9999 1.7002 42.0999 1.7002C43.0999 1.7002 44 2.5002 44 3.6002V16.9002L51.9 9.0002C52.2 8.7002 52.7 8.5002 53.2 8.5002C54.1 8.5002 54.9 9.3002 54.9 10.2002C54.9 10.7002 54.7 11.1002 54.4 11.4002L48.7999 16.8002L55.7999 24.2002C55.9999 24.4002 56.2 24.9002 56.2 25.3002Z" fill="#414042"/>
<path d="M59.2 3.20029C59.2 2.20029 60.0999 1.30029 61.0999 1.30029C62.0999 1.30029 63 2.20029 63 3.20029C63 4.20029 62.0999 5.10029 61.0999 5.10029C60.0999 5.10029 59.2 4.20029 59.2 3.20029ZM63 10.3003V25.1003C63 26.2003 62.1999 27.0003 61.0999 27.0003C60.0999 27.0003 59.2 26.2003 59.2 25.1003V10.3003C59.2 9.20029 59.9999 8.40029 61.0999 8.40029C62.0999 8.40029 63 9.20029 63 10.3003Z" fill="#414042"/>
<path d="M79.1 11.0002C79.3 11.3002 79.6 11.7002 79.6 12.3002C79.6 13.2002 78.9 13.7002 78.1 13.7002C77.5 13.7002 77 13.5002 76.5 12.8002C75.8 11.9002 74.8 11.3002 73.4 11.3002C71.6 11.3002 70.6 12.2002 70.6 13.4002C70.6 14.3002 71.1 15.1002 73 15.6002L75.2 16.2002C78.2 17.0002 80.4 18.3002 80.4 21.3002C80.4 25.0002 76.9 26.8002 73.3 26.8002C70.2 26.8002 68.1 25.5002 67.2 24.0002C67 23.8002 66.5 23.1002 66.5 22.2002C66.5 21.5002 67 20.7002 67.9 20.7002C68.7 20.7002 69.1 21.2002 69.5 21.7002C70.4 23.2002 71.8 23.7002 73.3 23.7002C75.3 23.7002 76.7 22.9002 76.7 21.5002C76.7 20.4002 76 19.7002 74.2 19.2002L71.8 18.6002C68.4 17.7002 66.9 15.8002 66.9 13.4002C66.9 10.1002 69.9 8.2002 73.3 8.2002C75.8 8.3002 78 9.3002 79.1 11.0002Z" fill="#414042"/>
<path d="M95.4999 11.0002C95.6999 11.3002 95.9999 11.7002 95.9999 12.3002C95.9999 13.2002 95.2999 13.7002 94.4999 13.7002C93.8999 13.7002 93.3999 13.5002 92.8999 12.8002C92.1999 11.9002 91.1999 11.3002 89.7999 11.3002C87.9999 11.3002 86.9999 12.2002 86.9999 13.4002C86.9999 14.3002 87.4999 15.1002 89.3999 15.6002L91.5999 16.2002C94.5999 17.0002 96.7999 18.3002 96.7999 21.3002C96.7999 25.0002 93.2999 26.8002 89.6999 26.8002C86.5999 26.8002 84.4999 25.5002 83.5999 24.0002C83.3999 23.8002 82.8999 23.1002 82.8999 22.2002C82.8999 21.5002 83.3999 20.7002 84.2999 20.7002C85.0999 20.7002 85.4999 21.2002 85.8999 21.7002C86.7999 23.2002 88.1999 23.7002 89.6999 23.7002C91.6999 23.7002 93.0999 22.9002 93.0999 21.5002C93.0999 20.4002 92.3999 19.7002 90.5999 19.2002L88.1999 18.6002C84.7999 17.7002 83.2999 15.8002 83.2999 13.4002C83.2999 10.1002 86.2999 8.2002 89.6999 8.2002C92.1999 8.3002 94.3999 9.3002 95.4999 11.0002Z" fill="#414042"/>
<path d="M111.9 3.80029C111.9 4.60029 111.3 5.20029 110.5 5.20029C110.2 5.20029 109.7 5.10029 109.2 4.90029C108.7 4.70029 108.3 4.50029 107.5 4.50029C105.5 4.50029 104.9 6.00029 104.9 7.40029V8.60029H108.4C109.3 8.60029 109.9 9.20029 109.9 10.1003C109.9 11.0003 109.3 11.6003 108.4 11.6003H105V25.2003C105 26.2003 104.2 27.1003 103.2 27.1003C102.2 27.1003 101.3 26.3003 101.3 25.2003V11.5003H100.1C99.1999 11.5003 98.5999 10.9003 98.5999 10.0003C98.5999 9.10029 99.1999 8.50029 100.1 8.50029H101.3V7.20029C101.3 2.40029 104.8 1.30029 107.1 1.30029C108.7 1.30029 110 1.70029 111 2.40029C111.6 2.70029 112 3.20029 111.9 3.80029ZM117.5 3.60029V25.1003C117.5 26.1003 116.7 27.0003 115.6 27.0003C114.5 27.0003 113.7 26.2003 113.7 25.1003V3.60029C113.7 2.60029 114.5 1.70029 115.6 1.70029C116.6 1.70029 117.5 2.50029 117.5 3.60029Z" fill="#414042"/>
<path d="M139.5 17.7003C139.5 24.0003 134.3 27.0003 130.2 27.0003C126.2 27.0003 121 23.9003 121 17.7003C121 11.5003 126.2 8.30029 130.2 8.30029C134.2 8.30029 139.5 11.4003 139.5 17.7003ZM124.7 17.7003C124.7 21.7003 127.5 23.8003 130.2 23.8003C132.9 23.8003 135.8 21.7003 135.8 17.7003C135.8 13.7003 133 11.6003 130.2 11.6003C127.5 11.5003 124.7 13.7003 124.7 17.7003Z" fill="#414042"/>
<path d="M167.9 10.2003C167.9 10.5003 167.8 10.7003 167.7 11.0003L162.8 25.4003C162.5 26.3003 161.8 26.8003 161 26.8003C160.2 26.8003 159.6 26.3003 159.2 25.4003L154.5 13.8003L149.7 25.4003C149.4 26.3003 148.7 26.8003 147.9 26.8003C147.1 26.8003 146.5 26.3003 146.1 25.4003L141.1 11.0003C141 10.7003 140.9 10.4003 140.9 10.2003C140.9 9.20029 141.7 8.40029 142.7 8.40029C143.4 8.40029 144.1 8.80029 144.3 9.40029L148.2 21.3003L152.8 9.50029C153.1 8.80029 153.7 8.30029 154.5 8.30029C155.3 8.30029 155.9 8.70029 156.2 9.50029L160.8 21.3003L164.7 9.40029C164.9 8.80029 165.6 8.40029 166.3 8.40029C167.1 8.40029 167.9 9.20029 167.9 10.2003Z" fill="#414042"/>
</g>
<defs>
<clipPath id="clip0_6670_1487">
<rect width="170" height="28" fill="white"/>
</clipPath>
</defs>
</svg>