<svg xmlns:xlink="http://www.w3.org/1999/xlink" xmlns="http://www.w3.org/2000/svg" width="130" height="41" viewBox="0 0 130 41" fill="none">
<path d="M36.5606 21.7054C36.5606 24.7473 36.2162 27.4449 35.5274 30.4868C34.4943 34.8776 31.4524 37.9195 27.0043 38.9239C21.2073 40.2727 15.0661 40.2727 9.29786 38.9239C5.2228 37.9195 1.80779 34.5332 1.11905 30.4868C0.430308 27.4449 0.0859375 24.403 0.0859375 21.7054C0.0859375 18.6634 0.430308 15.9659 1.11905 12.9239C2.15216 8.53319 5.19411 5.49125 9.64223 4.48684C12.3685 3.7981 15.4391 3.48242 18.5098 3.48242C21.5804 3.48242 24.3067 3.82679 27.3773 4.48684C31.7968 5.49125 34.8674 8.53319 35.9005 12.9239C36.2162 15.6215 36.5606 18.6634 36.5606 21.7054Z" fill="#F6B802"/>
<path d="M29.6164 19.6966C34.7515 19.6966 38.9144 15.5337 38.9144 10.3986C38.9144 5.26346 34.7515 1.10059 29.6164 1.10059C24.4812 1.10059 20.3184 5.26346 20.3184 10.3986C20.3184 15.5337 24.4812 19.6966 29.6164 19.6966Z" fill="#005AFF"/>
<path d="M53.4922 33.1262V11.7178H60.3796C62.3597 11.7178 63.7946 11.9187 64.6842 12.3204C65.7747 12.837 66.6357 13.5831 67.2383 14.5875C67.8697 15.5919 68.1853 16.7972 68.1853 18.1747C68.1853 19.4948 67.841 20.6714 67.1809 21.7619C66.5496 22.8237 65.66 23.5699 64.5695 24.029V24.0864C64.7703 24.2873 64.9999 24.6317 65.2869 25.1482L69.6776 33.1262H65.3443L61.1257 25.1482H57.3951V33.1262H53.4922ZM57.3951 21.7619H60.8962C61.9293 21.7619 62.7615 21.4749 63.3642 20.901C63.9668 20.2983 64.2538 19.4661 64.2538 18.4043C64.2538 17.3138 63.9668 16.4816 63.3928 15.9363C62.8189 15.3624 61.7858 15.1041 60.3509 15.1041H57.3951V21.7619ZM71.5143 25.4352C71.5143 23.0533 72.2317 21.1306 73.6953 19.6383C75.1588 18.146 77.0529 17.3712 79.32 17.3712C81.4723 17.3712 83.1368 18.0599 84.3134 19.4374C85.5187 20.8149 86.1213 22.5368 86.1213 24.6604L86.0352 26.124H75.4171C75.5319 27.4153 76.0198 28.4198 76.8807 29.1372C77.7703 29.8546 78.8034 30.199 80.0087 30.199C80.7262 30.199 81.4723 30.0555 82.2185 29.7685C82.9646 29.4816 83.5098 29.1946 83.9116 28.9363L84.4569 28.5059L85.9204 31.2608C85.863 31.3182 85.777 31.4043 85.6622 31.4904C85.5474 31.6052 85.2604 31.7774 84.8586 32.0357C84.4569 32.2652 84.0264 32.4948 83.5959 32.6957C83.1655 32.8679 82.5915 33.0401 81.8741 33.2123C81.1853 33.3844 80.4966 33.4418 79.7505 33.4418C77.2825 33.4418 75.2736 32.667 73.7527 31.1173C72.2604 29.5964 71.5143 27.7023 71.5143 25.4352ZM75.5319 23.5412H82.2472C82.2185 22.5368 81.9315 21.7619 81.3575 21.188C80.7836 20.614 80.0948 20.3557 79.2052 20.3557C78.2295 20.3557 77.3973 20.6427 76.7659 21.188C76.1346 21.7619 75.7328 22.5368 75.5319 23.5412ZM89.2781 39.1527V17.7443H92.7792V18.8635L92.7218 19.9253H92.7792C92.8079 19.8679 92.8652 19.7818 92.9226 19.667C93.0087 19.5522 93.1809 19.3513 93.4679 19.0644C93.7549 18.7774 94.0705 18.4904 94.4149 18.2895C94.7593 18.0599 95.2184 17.8591 95.7924 17.6869C96.3951 17.5147 97.0264 17.4286 97.7151 17.4286C99.7814 17.4286 101.417 18.1747 102.651 19.667C103.885 21.1593 104.516 23.082 104.516 25.4926C104.516 27.9032 103.856 29.8546 102.536 31.3469C101.245 32.8105 99.5518 33.5566 97.5143 33.5566C96.9403 33.5566 96.4238 33.4992 95.8785 33.3557C95.3619 33.2123 94.9602 33.0401 94.6445 32.8392C94.3288 32.6096 94.0419 32.4087 93.7836 32.2078C93.554 31.9783 93.3818 31.8061 93.267 31.6626L93.1235 31.4617H93.0661C93.0948 31.8348 93.1235 32.2652 93.1235 32.7818V39.1527H89.2781ZM92.98 25.5213C92.98 26.8127 93.3244 27.9319 93.9845 28.8789C94.6732 29.7972 95.6202 30.2564 96.8255 30.2564C97.916 30.2564 98.8343 29.8259 99.5805 28.9937C100.327 28.1328 100.7 26.9562 100.7 25.4926C100.7 24.0577 100.355 22.8811 99.6379 21.9915C98.9491 21.1019 98.0021 20.6714 96.8542 20.6714C95.7637 20.6714 94.8454 21.0732 94.0992 21.9054C93.3531 22.7089 92.98 23.9142 92.98 25.5213ZM107.472 28.3337V11.7178H111.26V27.7597C111.26 28.5632 111.375 29.1085 111.633 29.4242C111.892 29.7111 112.294 29.8833 112.839 29.8833L113.413 29.8546V33.2123C113.04 33.2696 112.638 33.2983 112.207 33.2983C111.576 33.2983 111.031 33.241 110.543 33.1549C110.055 33.0401 109.567 32.8105 109.079 32.5235C108.563 32.2078 108.19 31.6913 107.903 30.9738C107.616 30.2564 107.472 29.3668 107.472 28.3337ZM114.188 38.4639L115.45 35.5942C116.024 36.0246 116.598 36.2255 117.172 36.2255C118.377 36.2255 119.267 35.5655 119.812 34.2454L120.386 32.8966L113.901 17.773H118.205L121.419 26.6405L121.993 28.7067H122.051C122.223 27.9032 122.395 27.2432 122.567 26.6979L125.58 17.773H129.77L122.912 35.4507C122.395 36.7994 121.649 37.8039 120.645 38.4639C119.669 39.124 118.578 39.4683 117.373 39.4683C116.828 39.4683 116.282 39.3822 115.737 39.2387C115.221 39.0666 114.819 38.9231 114.561 38.7509L114.188 38.4639Z" fill="#0C043F"/>
</svg>